{"asset":{"generator":"3D Builder","version":"2.0"},"scene":0,"scenes":[{"nodes":[0]}],"nodes":[{"mesh":0,"matrix":[0.039370074868202209,0,0,0,0,-4.6932786545994531E-9,-0.039370071142911911,0,0,0.039370071142911911,-4.6932786545994531E-9,0,0,0.11396439373493195,-1.3585616187583582E-8,1]}],"meshes":[{"primitives":[{"attributes":{"POSITION":0,"COLOR_0":1},"mode":4,"indices":2}]}],"accessors":[{"bufferView":0,"byteOffset":0,"count":1410735,"componentType":5126,"type":"VEC3","min":[-3.0860998630523682,-1.6636999845504761,-2.8946959972381592],"max":[31.533994674682617,31.533897399902344,40.639778137207031]},{"bufferView":1,"byteOffset":0,"count":1410735,"componentType":5121,"type":"VEC4","normalized":true},{"bufferView":2,"byteOffset":0,"count":8460408,"componentType":5125,"type":"SCALAR"}],"bufferViews":[{"buffer":0,"byteOffset":0,"byteLength":16928820,"byteStride":12,"target":34962},{"buffer":0,"byteOffset":16928820,"byteLength":5642940,"byteStride":4,"target":34962},{"buffer":0,"byteOffset":22571760,"byteLength":33841632,"target":34963}],"buffers":[{"byteLength":56413392,"uri":"Modulo_CMS.bin"}]}